<svg xmlns="http://www.w3.org/2000/svg" width="1500" height="2250" viewBox="0 0 1500 2250">
  <defs>
    <style>
      .bg { fill: #f6f7f9; }
      .title { font: 700 34px 'Microsoft YaHei', Arial, sans-serif; fill: #111; }
      .sub { font: 500 16px 'Microsoft YaHei', Arial, sans-serif; fill: #666; }
      .card { fill: #fff; stroke: #1f2937; stroke-width: 2; rx: 18; ry: 18; }
      .soft { fill: #fbfbfc; stroke: #cfd6df; stroke-width: 1.6; rx: 18; ry: 18; }
      .tag { font: 700 13px 'Microsoft YaHei', Arial, sans-serif; fill: #4b5563; }
      .head { font: 700 20px 'Microsoft YaHei', Arial, sans-serif; fill: #111; }
      .body { font: 500 15px 'Microsoft YaHei', Arial, sans-serif; fill: #1f2937; }
      .code { font: 500 14px Consolas, monospace; fill: #111; }
      .note { fill: #eef7ff; stroke: #7aa7d6; stroke-width: 1.6; rx: 14; ry: 14; }
      .noteText { font: 500 14px 'Microsoft YaHei', Arial, sans-serif; fill: #234; }
      .arrow { stroke: #111; stroke-width: 2.4; fill: none; marker-end: url(#m); }
    </style>
    <marker id="m" markerWidth="10" markerHeight="10" refX="8" refY="3" orient="auto">
      <path d="M0,0 L8,3 L0,6 Z" fill="#111" />
    </marker>
  </defs>

  <rect class="bg" width="1500" height="2250"/>
  <text x="60" y="70" class="title">登录全过程流程图</text>
  <text x="60" y="102" class="sub">纵向重绘版，按真实代码链路拆成前端、Controller、Service、数据库、浏览器状态 5 层。</text>

  <rect x="70" y="150" width="1360" height="140" class="card"/>
  <text x="100" y="185" class="tag">用户操作</text>
  <text x="100" y="220" class="head">步骤 1：在登录页输入账号与密码</text>
  <text x="100" y="252" class="body">用户点击登录按钮后，会先进入 `client/src/views/Login.vue` 的 `handleSubmit()`。</text>

  <path d="M750 290 L750 330" class="arrow"/>

  <rect x="70" y="330" width="1360" height="220" class="card"/>
  <text x="100" y="365" class="tag">前端 · Login.vue</text>
  <text x="100" y="400" class="head">步骤 2：`handleSubmit()` 先校验表单，再调用登录请求</text>
  <text x="100" y="435" class="body">- 校验 `username` 和 `password` 是否为空</text>
  <text x="100" y="465" class="body">- 通过后调用 `login({ username, password })`</text>
  <text x="100" y="500" class="code">client/src/views/Login.vue -> login(payload)</text>

  <path d="M750 550 L750 590" class="arrow"/>

  <rect x="70" y="590" width="1360" height="210" class="soft"/>
  <text x="100" y="625" class="tag">前端 · servers/auth.ts + http-utils</text>
  <text x="100" y="660" class="head">步骤 3：登录请求通过 `request('/auth/login')` 发往后端</text>
  <text x="100" y="695" class="body">- `client/src/servers/auth.ts` 的 `login()` 负责组织登录请求</text>
  <text x="100" y="725" class="body">- 请求最终由 `httpInstance` 发出，目标地址是 `POST /auth/login`</text>
  <text x="100" y="760" class="code">request&lt;LoginResult&gt;('/auth/login', 'POST', payload)</text>

  <path d="M750 800 L750 840" class="arrow"/>

  <rect x="70" y="840" width="1360" height="200" class="card"/>
  <text x="100" y="875" class="tag">后端 · AuthController.login()</text>
  <text x="100" y="910" class="head">步骤 4：Controller 接收 `LoginDto` 并把逻辑交给 `AuthService.login()`</text>
  <text x="100" y="945" class="body">- Controller 自己不做密码比对</text>
  <text x="100" y="975" class="body">- 它只负责接收参数、调用 service、最后组织响应和 cookie</text>

  <path d="M750 1040 L750 1080" class="arrow"/>

  <rect x="70" y="1080" width="1360" height="340" class="card"/>
  <text x="100" y="1115" class="tag">后端 · AuthService.login()</text>
  <text x="100" y="1150" class="head">步骤 5：Service 内部依次执行验证用户、生成 token、存储 refreshToken 哈希</text>
  <text x="100" y="1185" class="body">- `validateUser(loginDto)`：根据 `username` 查库，再用 `bcrypt.compare()` 比对密码</text>
  <text x="100" y="1215" class="body">- `generateTokens(user)`：签发 `accessToken` 和 `refreshToken`</text>
  <text x="100" y="1245" class="body">- `bcrypt.hash(token.refreshToken, 10)`：把长令牌加密后写回数据库</text>
  <text x="100" y="1280" class="code">findOne({ username }) -> bcrypt.compare(...) -> signAsync(...) -> findByIdAndUpdate(...)</text>
  <text x="100" y="1315" class="body">返回结果包含：`accessToken`、`refreshToken`、`user`。</text>

  <path d="M750 1420 L750 1460" class="arrow"/>

  <rect x="70" y="1460" width="1360" height="220" class="soft"/>
  <text x="100" y="1495" class="tag">数据库 / 浏览器状态</text>
  <text x="100" y="1530" class="head">步骤 6：数据库和浏览器分别保存不同的登录状态</text>
  <text x="100" y="1565" class="body">- MongoDB `logins` 集合中保存的是 `refreshToken` 的哈希，不保存明文</text>
  <text x="100" y="1595" class="body">- 浏览器 cookie 中保存 `refresh_token`，供后续 `/auth/refresh` 自动携带</text>
  <text x="100" y="1625" class="body">- 前端稍后会把 `accessToken` 单独存进 `localStorage`</text>

  <path d="M750 1680 L750 1720" class="arrow"/>

  <rect x="70" y="1720" width="1360" height="230" class="card"/>
  <text x="100" y="1755" class="tag">后端返回 + 前端落地</text>
  <text x="100" y="1790" class="head">步骤 7：Controller 写 cookie，前端收到响应后落地 accessToken 并跳后台</text>
  <text x="100" y="1825" class="body">- `AuthController.login()` 用 `response.cookie('refresh_token', data.refreshToken, ...)` 写 cookie</text>
  <text x="100" y="1855" class="body">- 同时返回 `ApiResponse.success({ accessToken, user }, '登录成功')`</text>
  <text x="100" y="1885" class="body">- `Login.vue` 里取 `result.data?.accessToken`，写入 `localStorage.setItem('local-token', token)`</text>
  <text x="100" y="1915" class="body">- 最后 `router.push('/admin')`，进入后台</text>

  <path d="M750 1950 L750 1990" class="arrow"/>

  <rect x="70" y="1990" width="1360" height="180" class="note"/>
  <text x="95" y="2025" class="head">登录阶段必须记住的 4 句话</text>
  <text x="95" y="2060" class="noteText">1. 前端只保存 accessToken，refreshToken 主要通过 cookie 自动携带。</text>
  <text x="95" y="2088" class="noteText">2. 数据库里保存的是 refreshToken 哈希，用来做 refresh 合法性验证和 logout 失效控制。</text>
  <text x="95" y="2116" class="noteText">3. 登录成功后，后端会同时更新三处状态：响应体中的 accessToken、cookie 中的 refreshToken、数据库中的 refreshToken 哈希。</text>
  <text x="95" y="2144" class="noteText">4. 以后普通受保护请求靠 Bearer accessToken，refresh 链路靠 cookie 中的 refresh_token。</text>
</svg>
