<svg xmlns="http://www.w3.org/2000/svg" width="1500" height="2320" viewBox="0 0 1500 2320">
  <defs>
    <style>
      .bg { fill: #f6f7f9; }
      .title { font: 700 34px 'Microsoft YaHei', Arial, sans-serif; fill: #111; }
      .sub { font: 500 16px 'Microsoft YaHei', Arial, sans-serif; fill: #666; }
      .card { fill: #fff; stroke: #111; stroke-width: 2; rx: 18; ry: 18; }
      .soft { fill: #fbfbfc; stroke: #cfd6df; stroke-width: 1.6; rx: 18; ry: 18; }
      .tag { font: 700 13px 'Microsoft YaHei', Arial, sans-serif; fill: #4b5563; }
      .head { font: 700 20px 'Microsoft YaHei', Arial, sans-serif; fill: #111; }
      .body { font: 500 15px 'Microsoft YaHei', Arial, sans-serif; fill: #1f2937; }
      .code { font: 500 14px Consolas, monospace; fill: #111; }
      .note { fill: #eef7ff; stroke: #7aa7d6; stroke-width: 1.6; rx: 14; ry: 14; }
      .noteText { font: 500 14px 'Microsoft YaHei', Arial, sans-serif; fill: #234; }
      .arrow { stroke: #111; stroke-width: 2.4; fill: none; marker-end: url(#m); }
    </style>
    <marker id="m" markerWidth="10" markerHeight="10" refX="8" refY="3" orient="auto">
      <path d="M0,0 L8,3 L0,6 Z" fill="#111" />
    </marker>
  </defs>

  <rect class="bg" width="1500" height="2320"/>
  <text x="60" y="70" class="title">刷新全过程流程图</text>
  <text x="60" y="102" class="sub">把“普通请求 401 自动刷新”和“切后台路由时主动检查 accessToken”两条路径合并展示。</text>

  <rect x="70" y="150" width="1360" height="140" class="card"/>
  <text x="100" y="185" class="tag">触发入口</text>
  <text x="100" y="220" class="head">步骤 1：刷新链路的两个入口</text>
  <text x="100" y="252" class="body">入口 A：普通受保护接口返回 401；入口 B：切后台路由时 `router.beforeEach()` 主动检查 accessToken 是否过期。</text>

  <path d="M750 290 L750 330" class="arrow"/>

  <rect x="70" y="330" width="1360" height="240" class="soft"/>
  <text x="100" y="365" class="tag">入口 A · 普通业务请求</text>
  <text x="100" y="400" class="head">步骤 2A：`request()` 发出的普通接口请求会自动带 Bearer accessToken</text>
  <text x="100" y="435" class="body">- `httpInstance` 请求拦截器会从 `localStorage` 取 `local-token`</text>
  <text x="100" y="465" class="body">- 自动拼接到 `Authorization: Bearer xxx`</text>
  <text x="100" y="495" class="body">- 如果目标接口挂了 `AuthGuard`，后端会校验 accessToken</text>
  <text x="100" y="525" class="body">- accessToken 过期时，接口返回 401，进入普通响应拦截器</text>

  <path d="M750 570 L750 610" class="arrow"/>

  <rect x="70" y="610" width="1360" height="220" class="soft"/>
  <text x="100" y="645" class="tag">入口 B · 路由切换</text>
  <text x="100" y="680" class="head">步骤 2B：`router.beforeEach()` 在切后台前主动检查 accessToken.exp</text>
  <text x="100" y="715" class="body">- 只有进入 `/admin` 路由时才检查</text>
  <text x="100" y="745" class="body">- `useAuth.isAccessTokenExpired(token)` 内部用 `jwtDecode()` 读取 payload.exp</text>
  <text x="100" y="775" class="body">- 如果 accessToken 已过期，立即发起 `/auth/refresh`，不用先等业务接口 401</text>

  <path d="M750 830 L750 870" class="arrow"/>

  <rect x="70" y="870" width="1360" height="220" class="card"/>
  <text x="100" y="905" class="tag">前端 · 发起 refresh</text>
  <text x="100" y="940" class="head">步骤 3：两条入口最终都会调 `authRequest('/auth/refresh', 'POST')`</text>
  <text x="100" y="975" class="body">- `authRequest` 走的是 `authHttpInstance`</text>
  <text x="100" y="1005" class="body">- 这个实例不参与普通 401 自动刷新逻辑</text>
  <text x="100" y="1035" class="body">- 目的：避免 `/auth/refresh` 自己再触发 refresh，造成无限递归</text>

  <path d="M750 1090 L750 1130" class="arrow"/>

  <rect x="70" y="1130" width="1360" height="280" class="card"/>
  <text x="100" y="1165" class="tag">后端 · AuthController.refresh()</text>
  <text x="100" y="1200" class="head">步骤 4：Controller 先检查 refreshToken 自身，再把业务交给 `AuthService.refreshToken()`</text>
  <text x="100" y="1235" class="body">- 从 cookie 中读取 `refresh_token`</text>
  <text x="100" y="1265" class="body">- 如果 cookie 没有该字段，直接抛 `UnauthorizedException('缺少refreshToken')`</text>
  <text x="100" y="1295" class="body">- 用 `jwtService.verifyAsync(refreshToken, JWT_REFRESH_SECRET)` 检查 refreshToken 是否过期、是否合法</text>
  <text x="100" y="1325" class="body">- 成功后从 payload 中拿 `userId`，再调用 `authService.refreshToken(userId, refreshToken)`</text>

  <path d="M750 1410 L750 1450" class="arrow"/>

  <rect x="70" y="1450" width="1360" height="300" class="card"/>
  <text x="100" y="1485" class="tag">后端 · AuthService.refreshToken()</text>
  <text x="100" y="1520" class="head">步骤 5：Service 验证数据库里的 refreshToken 哈希，并重新签发一对新 token</text>
  <text x="100" y="1555" class="body">- 先根据 `userId` 查数据库用户</text>
  <text x="100" y="1585" class="body">- 如果查不到，或者数据库里没有 `refreshToken` 哈希，抛 `RefreshToken无效!`</text>
  <text x="100" y="1615" class="body">- 用 `bcrypt.compare(refreshToken, user.refreshToken)` 对比当前 cookie 和数据库哈希</text>
  <text x="100" y="1645" class="body">- 对比通过后，调用 `generateTokens(user)` 重新生成新的 `accessToken` 和 `refreshToken`</text>
  <text x="100" y="1675" class="body">- 再把新的 refreshToken 哈希写回数据库，实现长令牌轮换</text>

  <path d="M750 1750 L750 1790" class="arrow"/>

  <rect x="70" y="1790" width="1360" height="220" class="card"/>
  <text x="100" y="1825" class="tag">前端 · refresh 成功或失败</text>
  <text x="100" y="1860" class="head">步骤 6：refresh 成功时更新本地 accessToken；失败时清本地状态并跳登录页</text>
  <text x="100" y="1895" class="body">- 成功：取 `result.data?.accessToken`，写回 `localStorage.setItem('local-token', newToken)`</text>
  <text x="100" y="1925" class="body">- 如果入口来自普通 401，请求会重发；如果入口来自路由守卫，会直接放行后台路由</text>
  <text x="100" y="1955" class="body">- 失败：删除 `local-token`，弹提示，并跳转 `/login`</text>

  <path d="M750 2010 L750 2050" class="arrow"/>

  <rect x="70" y="2050" width="1360" height="190" class="note"/>
  <text x="95" y="2085" class="head">刷新阶段必须记住的 4 句话</text>
  <text x="95" y="2120" class="noteText">1. accessToken 的过期检查有两条入口：普通请求 401 后被动检查；切后台路由时主动检查。</text>
  <text x="95" y="2148" class="noteText">2. refreshToken 的真正过期判断发生在后端 `/auth/refresh`：先验 JWT，再比对数据库哈希。</text>
  <text x="95" y="2176" class="noteText">3. 你当前实现是“滑动续期”：refresh 成功会重新发新的 refreshToken，所以持续活跃时会不断续命。</text>
  <text x="95" y="2204" class="noteText">4. 如果想做“绝对 7 天后必须重新登录”，需要额外设计会话上限字段，不是现在这套轮换逻辑自动具备的。</text>
</svg>
